<mxfile host="65bd71144e">
    <diagram id="p8_w-iYU0pHpUN04nuYH" name="Page-1">
        <mxGraphModel dx="6040" dy="1649" grid="1" gridSize="10" guides="1" tooltips="1" connect="1" arrows="1" fold="1" page="1" pageScale="1" pageWidth="3300" pageHeight="2339" math="0" shadow="0">
            <root>
                <mxCell id="0"/>
                <mxCell id="1" parent="0"/>
                <mxCell id="2" value="&lt;span style=&quot;font-family: &amp;quot;Nunito Sans&amp;quot;, sans-serif; font-size: 14px; font-weight: 400; text-align: start; background-color: rgb(17, 8, 8);&quot;&gt;&lt;font color=&quot;#fdf7f7&quot;&gt;YouEvent&lt;/font&gt;&lt;/span&gt;" style="shape=umlFrame;whiteSpace=wrap;html=1;width=90;height=30;fontStyle=1;strokeColor=#fafafa;" vertex="1" parent="1">
                    <mxGeometry x="200" y="60" width="880" height="1420" as="geometry"/>
                </mxCell>
                <mxCell id="3" value="&lt;font style=&quot;font-size: 16px;&quot;&gt;User&lt;/font&gt;" style="shape=umlActor;verticalLabelPosition=bottom;verticalAlign=top;html=1;" vertex="1" parent="1">
                    <mxGeometry x="70" y="200" width="30" height="60" as="geometry"/>
                </mxCell>
                <mxCell id="45" style="edgeStyle=none;html=1;entryX=0.5;entryY=0;entryDx=0;entryDy=0;strokeWidth=2;fontSize=25;fontColor=#FFFFFF;dashed=1;exitX=1;exitY=0.5;exitDx=0;exitDy=0;" edge="1" parent="1" source="4" target="42">
                    <mxGeometry relative="1" as="geometry">
                        <Array as="points">
                            <mxPoint x="850" y="350"/>
                        </Array>
                    </mxGeometry>
                </mxCell>
                <mxCell id="4" value="&lt;span style=&quot;color: rgb(219, 222, 225); font-family: &amp;quot;gg sans&amp;quot;, &amp;quot;Noto Sans&amp;quot;, &amp;quot;Helvetica Neue&amp;quot;, Helvetica, Arial, sans-serif; font-size: 16px; text-align: left; background-color: rgba(2, 2, 2, 0.06);&quot;&gt;Parcourir les événements disponibles&lt;/span&gt;" style="ellipse;whiteSpace=wrap;html=1;" vertex="1" parent="1">
                    <mxGeometry x="340" y="100" width="170" height="70" as="geometry"/>
                </mxCell>
                <mxCell id="47" style="edgeStyle=none;html=1;entryX=0.43;entryY=-0.036;entryDx=0;entryDy=0;entryPerimeter=0;dashed=1;strokeWidth=2;fontSize=25;fontColor=#FFFFFF;exitX=1;exitY=0.5;exitDx=0;exitDy=0;" edge="1" parent="1" source="5" target="42">
                    <mxGeometry relative="1" as="geometry">
                        <Array as="points">
                            <mxPoint x="770" y="420"/>
                        </Array>
                    </mxGeometry>
                </mxCell>
                <mxCell id="5" value="&lt;span style=&quot;margin: 0px; padding: 0px; border: 0px; font-family: &amp;quot;gg sans&amp;quot;, &amp;quot;Noto Sans&amp;quot;, &amp;quot;Helvetica Neue&amp;quot;, Helvetica, Arial, sans-serif; font-size: 16px; vertical-align: baseline; outline: 0px; color: rgb(219, 222, 225); text-align: left; background-color: rgba(2, 2, 2, 0.06);&quot;&gt;&lt;br&gt;Consulter les détails d&lt;/span&gt;&lt;span style=&quot;margin: 0px; padding: 0px; border: 0px; font-family: &amp;quot;gg sans&amp;quot;, &amp;quot;Noto Sans&amp;quot;, &amp;quot;Helvetica Neue&amp;quot;, Helvetica, Arial, sans-serif; font-size: 16px; vertical-align: baseline; outline: 0px; color: rgb(219, 222, 225); text-align: left; background-color: rgba(2, 2, 2, 0.06);&quot;&gt;'un événement&lt;br&gt;&lt;br&gt;&lt;/span&gt;" style="ellipse;whiteSpace=wrap;html=1;" vertex="1" parent="1">
                    <mxGeometry x="340" y="190" width="170" height="70" as="geometry"/>
                </mxCell>
                <mxCell id="48" style="edgeStyle=none;html=1;entryX=0.331;entryY=-0.036;entryDx=0;entryDy=0;dashed=1;strokeWidth=2;fontSize=25;fontColor=#FFFFFF;exitX=1;exitY=0.5;exitDx=0;exitDy=0;entryPerimeter=0;" edge="1" parent="1" source="6" target="42">
                    <mxGeometry relative="1" as="geometry">
                        <Array as="points">
                            <mxPoint x="720" y="470"/>
                        </Array>
                    </mxGeometry>
                </mxCell>
                <mxCell id="6" value="&lt;span style=&quot;color: rgb(219, 222, 225); font-family: &amp;quot;gg sans&amp;quot;, &amp;quot;Noto Sans&amp;quot;, &amp;quot;Helvetica Neue&amp;quot;, Helvetica, Arial, sans-serif; font-size: 16px; text-align: left; background-color: rgba(2, 2, 2, 0.06);&quot;&gt;&lt;br&gt;Sélectionner le &lt;br&gt;nombre de tickets&lt;br&gt;&lt;br&gt;&lt;/span&gt;" style="ellipse;whiteSpace=wrap;html=1;" vertex="1" parent="1">
                    <mxGeometry x="340" y="280" width="170" height="70" as="geometry"/>
                </mxCell>
                <mxCell id="49" style="edgeStyle=none;html=1;entryX=0.287;entryY=0.069;entryDx=0;entryDy=0;dashed=1;strokeWidth=2;fontSize=25;fontColor=#FFFFFF;entryPerimeter=0;exitX=1;exitY=0.5;exitDx=0;exitDy=0;" edge="1" parent="1" source="7" target="42">
                    <mxGeometry relative="1" as="geometry">
                        <Array as="points">
                            <mxPoint x="700" y="510"/>
                        </Array>
                    </mxGeometry>
                </mxCell>
                <mxCell id="7" value="&lt;span style=&quot;color: rgb(219, 222, 225); font-family: &amp;quot;gg sans&amp;quot;, &amp;quot;Noto Sans&amp;quot;, &amp;quot;Helvetica Neue&amp;quot;, Helvetica, Arial, sans-serif; font-size: 16px; text-align: left; background-color: rgba(2, 2, 2, 0.06);&quot;&gt;&lt;br&gt;Choisir les types de billets&lt;br&gt;&lt;br&gt;&lt;/span&gt;" style="ellipse;whiteSpace=wrap;html=1;" vertex="1" parent="1">
                    <mxGeometry x="340" y="370" width="170" height="60" as="geometry"/>
                </mxCell>
                <mxCell id="8" value="" style="endArrow=none;html=1;fontColor=#fdf7f7;entryX=0;entryY=0.5;entryDx=0;entryDy=0;" edge="1" parent="1" target="7">
                    <mxGeometry width="50" height="50" relative="1" as="geometry">
                        <mxPoint x="100" y="230" as="sourcePoint"/>
                        <mxPoint x="340" y="400" as="targetPoint"/>
                    </mxGeometry>
                </mxCell>
                <mxCell id="9" value="" style="endArrow=none;html=1;fontColor=#fdf7f7;exitX=0;exitY=0.5;exitDx=0;exitDy=0;" edge="1" parent="1" source="6">
                    <mxGeometry width="50" height="50" relative="1" as="geometry">
                        <mxPoint x="340" y="270" as="sourcePoint"/>
                        <mxPoint x="100" y="230" as="targetPoint"/>
                    </mxGeometry>
                </mxCell>
                <mxCell id="10" value="" style="endArrow=none;html=1;fontColor=#fdf7f7;exitX=0;exitY=0.5;exitDx=0;exitDy=0;" edge="1" parent="1" source="5">
                    <mxGeometry width="50" height="50" relative="1" as="geometry">
                        <mxPoint x="410" y="280" as="sourcePoint"/>
                        <mxPoint x="100" y="230" as="targetPoint"/>
                    </mxGeometry>
                </mxCell>
                <mxCell id="11" value="" style="endArrow=none;html=1;fontColor=#fdf7f7;entryX=0;entryY=0.5;entryDx=0;entryDy=0;" edge="1" parent="1" target="4">
                    <mxGeometry width="50" height="50" relative="1" as="geometry">
                        <mxPoint x="100" y="230" as="sourcePoint"/>
                        <mxPoint x="460" y="230" as="targetPoint"/>
                    </mxGeometry>
                </mxCell>
                <mxCell id="50" style="edgeStyle=none;html=1;dashed=1;strokeWidth=2;fontSize=25;fontColor=#FFFFFF;exitX=1;exitY=0.5;exitDx=0;exitDy=0;" edge="1" parent="1" source="12" target="42">
                    <mxGeometry relative="1" as="geometry">
                        <Array as="points">
                            <mxPoint x="660" y="530"/>
                        </Array>
                    </mxGeometry>
                </mxCell>
                <mxCell id="12" value="&lt;span style=&quot;color: rgb(219, 222, 225); font-family: &amp;quot;gg sans&amp;quot;, &amp;quot;Noto Sans&amp;quot;, &amp;quot;Helvetica Neue&amp;quot;, Helvetica, Arial, sans-serif; font-size: 16px; text-align: left; background-color: rgba(2, 2, 2, 0.06);&quot;&gt;&lt;br&gt;&lt;/span&gt;&lt;span style=&quot;color: rgb(219, 222, 225); font-family: &amp;quot;gg sans&amp;quot;, &amp;quot;Noto Sans&amp;quot;, &amp;quot;Helvetica Neue&amp;quot;, Helvetica, Arial, sans-serif; font-size: 16px; text-align: left; background-color: rgba(2, 2, 2, 0.06);&quot;&gt;Recevoir une confirmation de réservation&lt;br/&gt;&lt;br/&gt;&lt;/span&gt;" style="ellipse;whiteSpace=wrap;html=1;" vertex="1" parent="1">
                    <mxGeometry x="340" y="450" width="170" height="60" as="geometry"/>
                </mxCell>
                <mxCell id="13" value="" style="endArrow=none;html=1;fontColor=#fdf7f7;exitX=0;exitY=0.5;exitDx=0;exitDy=0;" edge="1" parent="1" source="12">
                    <mxGeometry width="50" height="50" relative="1" as="geometry">
                        <mxPoint x="410" y="440" as="sourcePoint"/>
                        <mxPoint x="100" y="230" as="targetPoint"/>
                    </mxGeometry>
                </mxCell>
                <mxCell id="15" value="&lt;font style=&quot;font-size: 16px;&quot;&gt;Organizer&lt;/font&gt;" style="shape=umlActor;verticalLabelPosition=bottom;verticalAlign=top;html=1;" vertex="1" parent="1">
                    <mxGeometry x="70" y="720" width="30" height="60" as="geometry"/>
                </mxCell>
                <mxCell id="51" style="edgeStyle=none;html=1;entryX=0;entryY=0;entryDx=0;entryDy=0;dashed=1;strokeWidth=2;fontSize=25;fontColor=#FFFFFF;" edge="1" parent="1" source="17" target="42">
                    <mxGeometry relative="1" as="geometry"/>
                </mxCell>
                <mxCell id="17" value="&lt;span style=&quot;color: rgb(219, 222, 225); font-family: &amp;quot;gg sans&amp;quot;, &amp;quot;Noto Sans&amp;quot;, &amp;quot;Helvetica Neue&amp;quot;, Helvetica, Arial, sans-serif; font-size: 16px; text-align: left; background-color: rgba(2, 2, 2, 0.06);&quot;&gt;&lt;br&gt;Créer un événement&lt;br&gt;&lt;br&gt;&lt;/span&gt;" style="ellipse;whiteSpace=wrap;html=1;" vertex="1" parent="1">
                    <mxGeometry x="340" y="580" width="170" height="70" as="geometry"/>
                </mxCell>
                <mxCell id="52" style="edgeStyle=none;html=1;entryX=0.044;entryY=0.305;entryDx=0;entryDy=0;entryPerimeter=0;dashed=1;strokeWidth=2;fontSize=25;fontColor=#FFFFFF;" edge="1" parent="1" source="18" target="42">
                    <mxGeometry relative="1" as="geometry"/>
                </mxCell>
                <mxCell id="18" value="&lt;span style=&quot;margin: 0px; padding: 0px; border: 0px; font-family: &amp;quot;gg sans&amp;quot;, &amp;quot;Noto Sans&amp;quot;, &amp;quot;Helvetica Neue&amp;quot;, Helvetica, Arial, sans-serif; font-size: 16px; vertical-align: baseline; outline: 0px; color: rgb(219, 222, 225); text-align: left; background-color: rgba(2, 2, 2, 0.06);&quot;&gt;&lt;br&gt;&lt;/span&gt;&lt;span style=&quot;margin: 0px; padding: 0px; border: 0px; font-family: &amp;quot;gg sans&amp;quot;, &amp;quot;Noto Sans&amp;quot;, &amp;quot;Helvetica Neue&amp;quot;, Helvetica, Arial, sans-serif; font-size: 16px; vertical-align: baseline; outline: 0px; color: rgb(219, 222, 225); text-align: left; background-color: rgba(2, 2, 2, 0.06);&quot;&gt;&lt;span style=&quot;margin: 0px; padding: 0px; border: 0px; vertical-align: baseline; outline: 0px;&quot;&gt;Gérer les détails de l&lt;/span&gt;&lt;span style=&quot;margin: 0px; padding: 0px; border: 0px; vertical-align: baseline; outline: 0px;&quot;&gt;'événement &lt;/span&gt;&lt;span style=&quot;margin: 0px; padding: 0px; border: 0px; vertical-align: baseline; outline: 0px;&quot;&gt;(date&lt;/span&gt;&lt;span style=&quot;margin: 0px; padding: 0px; border: 0px; vertical-align: baseline; outline: 0px;&quot;&gt;, heure&lt;/span&gt;&lt;span style=&quot;margin: 0px; padding: 0px; border: 0px; vertical-align: baseline; outline: 0px;&quot;&gt;, lieu&lt;/span&gt;&lt;span style=&quot;margin: 0px; padding: 0px; border: 0px; vertical-align: baseline; outline: 0px;&quot;&gt;, etc&lt;/span&gt;&lt;span style=&quot;margin: 0px; padding: 0px; border: 0px; vertical-align: baseline; outline: 0px;&quot;&gt;.&lt;/span&gt;&lt;span style=&quot;margin: 0px; padding: 0px; border: 0px; vertical-align: baseline; outline: 0px;&quot;&gt;)&lt;br/&gt;&lt;br/&gt;&lt;/span&gt;&lt;/span&gt;" style="ellipse;whiteSpace=wrap;html=1;" vertex="1" parent="1">
                    <mxGeometry x="340" y="670" width="170" height="80" as="geometry"/>
                </mxCell>
                <mxCell id="53" style="edgeStyle=none;html=1;dashed=1;strokeWidth=2;fontSize=25;fontColor=#FFFFFF;" edge="1" parent="1" source="19" target="42">
                    <mxGeometry relative="1" as="geometry"/>
                </mxCell>
                <mxCell id="19" value="&lt;span style=&quot;color: rgb(219, 222, 225); font-family: &amp;quot;gg sans&amp;quot;, &amp;quot;Noto Sans&amp;quot;, &amp;quot;Helvetica Neue&amp;quot;, Helvetica, Arial, sans-serif; font-size: 16px; text-align: left; background-color: rgba(2, 2, 2, 0.06);&quot;&gt;&lt;br&gt;&lt;/span&gt;&lt;span style=&quot;color: rgb(219, 222, 225); font-family: &amp;quot;gg sans&amp;quot;, &amp;quot;Noto Sans&amp;quot;, &amp;quot;Helvetica Neue&amp;quot;, Helvetica, Arial, sans-serif; font-size: 16px; text-align: left; background-color: rgba(2, 2, 2, 0.06);&quot;&gt;Définir &lt;br&gt;les&amp;nbsp;disponibilités de tickets&lt;br&gt;&lt;/span&gt;&lt;span style=&quot;color: rgb(219, 222, 225); font-family: &amp;quot;gg sans&amp;quot;, &amp;quot;Noto Sans&amp;quot;, &amp;quot;Helvetica Neue&amp;quot;, Helvetica, Arial, sans-serif; font-size: 16px; text-align: left; background-color: rgba(2, 2, 2, 0.06);&quot;&gt;&lt;br&gt;&lt;/span&gt;" style="ellipse;whiteSpace=wrap;html=1;" vertex="1" parent="1">
                    <mxGeometry x="340" y="760" width="170" height="70" as="geometry"/>
                </mxCell>
                <mxCell id="54" style="edgeStyle=none;html=1;entryX=0.055;entryY=0.75;entryDx=0;entryDy=0;entryPerimeter=0;dashed=1;strokeWidth=2;fontSize=25;fontColor=#FFFFFF;" edge="1" parent="1" source="20" target="42">
                    <mxGeometry relative="1" as="geometry"/>
                </mxCell>
                <mxCell id="20" value="&lt;span style=&quot;color: rgb(219, 222, 225); font-family: &amp;quot;gg sans&amp;quot;, &amp;quot;Noto Sans&amp;quot;, &amp;quot;Helvetica Neue&amp;quot;, Helvetica, Arial, sans-serif; font-size: 16px; text-align: left; background-color: rgba(2, 2, 2, 0.06);&quot;&gt;&lt;br&gt;&lt;/span&gt;&lt;span style=&quot;margin: 0px; padding: 0px; border: 0px; font-family: &amp;quot;gg sans&amp;quot;, &amp;quot;Noto Sans&amp;quot;, &amp;quot;Helvetica Neue&amp;quot;, Helvetica, Arial, sans-serif; font-size: 16px; vertical-align: baseline; outline: 0px; color: rgb(219, 222, 225); text-align: left; background-color: rgba(2, 2, 2, 0.06);&quot;&gt;Modifier les informations d&lt;/span&gt;&lt;span style=&quot;margin: 0px; padding: 0px; border: 0px; font-family: &amp;quot;gg sans&amp;quot;, &amp;quot;Noto Sans&amp;quot;, &amp;quot;Helvetica Neue&amp;quot;, Helvetica, Arial, sans-serif; font-size: 16px; vertical-align: baseline; outline: 0px; color: rgb(219, 222, 225); text-align: left; background-color: rgba(2, 2, 2, 0.06);&quot;&gt;'un événement existant&lt;br/&gt;&lt;br/&gt;&lt;/span&gt;" style="ellipse;whiteSpace=wrap;html=1;" vertex="1" parent="1">
                    <mxGeometry x="340" y="850" width="200" height="80" as="geometry"/>
                </mxCell>
                <mxCell id="21" value="" style="endArrow=none;html=1;fontSize=16;fontColor=#fdf7f7;entryX=0;entryY=0.5;entryDx=0;entryDy=0;" edge="1" parent="1" target="17">
                    <mxGeometry width="50" height="50" relative="1" as="geometry">
                        <mxPoint x="120" y="760" as="sourcePoint"/>
                        <mxPoint x="460" y="720" as="targetPoint"/>
                    </mxGeometry>
                </mxCell>
                <mxCell id="22" value="" style="endArrow=none;html=1;fontSize=16;fontColor=#fdf7f7;exitX=0;exitY=0.5;exitDx=0;exitDy=0;" edge="1" parent="1" source="18">
                    <mxGeometry width="50" height="50" relative="1" as="geometry">
                        <mxPoint x="410" y="770" as="sourcePoint"/>
                        <mxPoint x="120" y="760" as="targetPoint"/>
                    </mxGeometry>
                </mxCell>
                <mxCell id="23" value="" style="endArrow=none;html=1;fontSize=16;fontColor=#fdf7f7;exitX=0;exitY=0.5;exitDx=0;exitDy=0;" edge="1" parent="1" source="19">
                    <mxGeometry width="50" height="50" relative="1" as="geometry">
                        <mxPoint x="410" y="770" as="sourcePoint"/>
                        <mxPoint x="120" y="760" as="targetPoint"/>
                    </mxGeometry>
                </mxCell>
                <mxCell id="24" value="" style="endArrow=none;html=1;fontSize=16;fontColor=#fdf7f7;exitX=0;exitY=0.5;exitDx=0;exitDy=0;" edge="1" parent="1" source="20">
                    <mxGeometry width="50" height="50" relative="1" as="geometry">
                        <mxPoint x="410" y="770" as="sourcePoint"/>
                        <mxPoint x="120" y="760" as="targetPoint"/>
                    </mxGeometry>
                </mxCell>
                <mxCell id="25" value="" style="endArrow=classic;html=1;fontSize=16;fontColor=#fdf7f7;strokeWidth=2;" edge="1" parent="1">
                    <mxGeometry width="50" height="50" relative="1" as="geometry">
                        <mxPoint x="84" y="710" as="sourcePoint"/>
                        <mxPoint x="84.09" y="290" as="targetPoint"/>
                    </mxGeometry>
                </mxCell>
                <mxCell id="27" value="&lt;span style=&quot;font-size: 16px;&quot;&gt;Admin&lt;/span&gt;" style="shape=umlActor;verticalLabelPosition=bottom;verticalAlign=top;html=1;" vertex="1" parent="1">
                    <mxGeometry x="70" y="1120" width="30" height="60" as="geometry"/>
                </mxCell>
                <mxCell id="57" style="edgeStyle=none;html=1;entryX=0.232;entryY=0.959;entryDx=0;entryDy=0;entryPerimeter=0;dashed=1;strokeWidth=2;fontSize=25;fontColor=#FFFFFF;exitX=1;exitY=0.5;exitDx=0;exitDy=0;" edge="1" parent="1" source="28" target="42">
                    <mxGeometry relative="1" as="geometry">
                        <Array as="points">
                            <mxPoint x="780" y="950"/>
                        </Array>
                    </mxGeometry>
                </mxCell>
                <mxCell id="28" value="&lt;span style=&quot;margin: 0px; padding: 0px; border: 0px; font-family: &amp;quot;gg sans&amp;quot;, &amp;quot;Noto Sans&amp;quot;, &amp;quot;Helvetica Neue&amp;quot;, Helvetica, Arial, sans-serif; font-size: 16px; vertical-align: baseline; outline: 0px; color: rgb(219, 222, 225); text-align: left; background-color: rgba(2, 2, 2, 0.06);&quot;&gt;&lt;br&gt;Gérer les utilisateurs &lt;/span&gt;&lt;span style=&quot;margin: 0px; padding: 0px; border: 0px; font-family: &amp;quot;gg sans&amp;quot;, &amp;quot;Noto Sans&amp;quot;, &amp;quot;Helvetica Neue&amp;quot;, Helvetica, Arial, sans-serif; font-size: 16px; vertical-align: baseline; outline: 0px; color: rgb(219, 222, 225); text-align: left; background-color: rgba(2, 2, 2, 0.06);&quot;&gt;(ajouter&lt;/span&gt;&lt;span style=&quot;margin: 0px; padding: 0px; border: 0px; font-family: &amp;quot;gg sans&amp;quot;, &amp;quot;Noto Sans&amp;quot;, &amp;quot;Helvetica Neue&amp;quot;, Helvetica, Arial, sans-serif; font-size: 16px; vertical-align: baseline; outline: 0px; color: rgb(219, 222, 225); text-align: left; background-color: rgba(2, 2, 2, 0.06);&quot;&gt;, supprimer&lt;/span&gt;&lt;span style=&quot;margin: 0px; padding: 0px; border: 0px; font-family: &amp;quot;gg sans&amp;quot;, &amp;quot;Noto Sans&amp;quot;, &amp;quot;Helvetica Neue&amp;quot;, Helvetica, Arial, sans-serif; font-size: 16px; vertical-align: baseline; outline: 0px; color: rgb(219, 222, 225); text-align: left; background-color: rgba(2, 2, 2, 0.06);&quot;&gt;, modifier des comptes&lt;/span&gt;&lt;span style=&quot;margin: 0px; padding: 0px; border: 0px; font-family: &amp;quot;gg sans&amp;quot;, &amp;quot;Noto Sans&amp;quot;, &amp;quot;Helvetica Neue&amp;quot;, Helvetica, Arial, sans-serif; font-size: 16px; vertical-align: baseline; outline: 0px; color: rgb(219, 222, 225); text-align: left; background-color: rgba(2, 2, 2, 0.06);&quot;&gt;)&lt;br&gt;&lt;br&gt;&lt;/span&gt;" style="ellipse;whiteSpace=wrap;html=1;" vertex="1" parent="1">
                    <mxGeometry x="340" y="990" width="210" height="80" as="geometry"/>
                </mxCell>
                <mxCell id="58" style="edgeStyle=none;html=1;entryX=0.397;entryY=1.064;entryDx=0;entryDy=0;entryPerimeter=0;dashed=1;strokeWidth=2;fontSize=25;fontColor=#FFFFFF;exitX=1;exitY=0.5;exitDx=0;exitDy=0;" edge="1" parent="1" source="29" target="42">
                    <mxGeometry relative="1" as="geometry">
                        <Array as="points">
                            <mxPoint x="820" y="1000"/>
                        </Array>
                    </mxGeometry>
                </mxCell>
                <mxCell id="29" value="&lt;span style=&quot;margin: 0px; padding: 0px; border: 0px; font-family: &amp;quot;gg sans&amp;quot;, &amp;quot;Noto Sans&amp;quot;, &amp;quot;Helvetica Neue&amp;quot;, Helvetica, Arial, sans-serif; font-size: 16px; vertical-align: baseline; outline: 0px; color: rgb(219, 222, 225); text-align: left; background-color: rgba(2, 2, 2, 0.06);&quot;&gt;&lt;br&gt;&lt;/span&gt;&lt;span style=&quot;margin: 0px; padding: 0px; border: 0px; font-family: &amp;quot;gg sans&amp;quot;, &amp;quot;Noto Sans&amp;quot;, &amp;quot;Helvetica Neue&amp;quot;, Helvetica, Arial, sans-serif; font-size: 16px; vertical-align: baseline; outline: 0px; color: rgb(219, 222, 225); text-align: left; background-color: rgba(2, 2, 2, 0.06);&quot;&gt;&lt;span style=&quot;margin: 0px; padding: 0px; border: 0px; vertical-align: baseline; outline: 0px;&quot;&gt;&lt;span style=&quot;margin: 0px; padding: 0px; border: 0px; vertical-align: baseline; outline: 0px;&quot;&gt;Gérer les autorisations d&lt;/span&gt;&lt;span style=&quot;margin: 0px; padding: 0px; border: 0px; vertical-align: baseline; outline: 0px;&quot;&gt;'accès à l&lt;/span&gt;&lt;span style=&quot;margin: 0px; padding: 0px; border: 0px; vertical-align: baseline; outline: 0px;&quot;&gt;'application&lt;br/&gt;&lt;br/&gt;&lt;/span&gt;&lt;/span&gt;&lt;/span&gt;" style="ellipse;whiteSpace=wrap;html=1;" vertex="1" parent="1">
                    <mxGeometry x="340" y="1085" width="170" height="80" as="geometry"/>
                </mxCell>
                <mxCell id="59" style="edgeStyle=none;html=1;entryX=0.5;entryY=1;entryDx=0;entryDy=0;dashed=1;strokeWidth=2;fontSize=25;fontColor=#FFFFFF;exitX=1;exitY=0.5;exitDx=0;exitDy=0;" edge="1" parent="1" source="30" target="42">
                    <mxGeometry relative="1" as="geometry">
                        <Array as="points">
                            <mxPoint x="830" y="1070"/>
                        </Array>
                    </mxGeometry>
                </mxCell>
                <mxCell id="30" value="&lt;span style=&quot;color: rgb(219, 222, 225); font-family: &amp;quot;gg sans&amp;quot;, &amp;quot;Noto Sans&amp;quot;, &amp;quot;Helvetica Neue&amp;quot;, Helvetica, Arial, sans-serif; font-size: 16px; text-align: left; background-color: rgba(2, 2, 2, 0.06);&quot;&gt;&lt;br&gt;&lt;/span&gt;&lt;span style=&quot;color: rgb(219, 222, 225); font-family: &amp;quot;gg sans&amp;quot;, &amp;quot;Noto Sans&amp;quot;, &amp;quot;Helvetica Neue&amp;quot;, Helvetica, Arial, sans-serif; font-size: 16px; text-align: left; background-color: rgba(2, 2, 2, 0.06);&quot;&gt;Visualiser les statistiques globales de réservation&lt;br/&gt;&lt;br/&gt;&lt;/span&gt;" style="ellipse;whiteSpace=wrap;html=1;" vertex="1" parent="1">
                    <mxGeometry x="340" y="1175" width="170" height="70" as="geometry"/>
                </mxCell>
                <mxCell id="31" value="&lt;span style=&quot;color: rgb(219, 222, 225); font-family: &amp;quot;gg sans&amp;quot;, &amp;quot;Noto Sans&amp;quot;, &amp;quot;Helvetica Neue&amp;quot;, Helvetica, Arial, sans-serif; font-size: 16px; text-align: left; background-color: rgba(2, 2, 2, 0.06);&quot;&gt;&lt;br&gt;&lt;/span&gt;&lt;span style=&quot;margin: 0px; padding: 0px; border: 0px; font-family: &amp;quot;gg sans&amp;quot;, &amp;quot;Noto Sans&amp;quot;, &amp;quot;Helvetica Neue&amp;quot;, Helvetica, Arial, sans-serif; font-size: 16px; vertical-align: baseline; outline: 0px; color: rgb(219, 222, 225); text-align: left; background-color: rgba(2, 2, 2, 0.06);&quot;&gt;&lt;div style=&quot;margin: 0px 0px 24px; padding: 0px; border: 0px; font-weight: inherit; font-style: inherit; font-family: inherit; vertical-align: baseline; outline: 0px; position: relative; width: 952px; border-radius: 8px; background-color: var(--background-primary);&quot; class=&quot;channelTextArea__2e60f channelTextArea__56a36&quot;&gt;&lt;div style=&quot;margin: 0px; padding: 0px; border: 0px; font-weight: inherit; font-style: inherit; font-family: inherit; vertical-align: baseline; outline: 0px; overflow: hidden scroll; max-height: 50vh; border-radius: 8px; backface-visibility: hidden; background: var(--bg-overlay-3,var(--channeltextarea-background));&quot; class=&quot;scrollableContainer__33e06 themedBackground__6b1b6 webkit__8d35a&quot;&gt;&lt;div style=&quot;margin: 0px; padding: 0px 0px 0px 16px; border: 0px; font-weight: inherit; font-style: inherit; font-family: inherit; vertical-align: baseline; outline: 0px; display: flex; position: relative;&quot; class=&quot;inner__9fd0b sansAttachButton__996a4&quot;&gt;&lt;div style=&quot;margin: 0px; padding: 0px; border: none; font-style: inherit; font-family: inherit; font-size: 1rem; vertical-align: baseline; outline: 0px; position: relative; background-color: transparent; resize: none; appearance: none; box-sizing: border-box; line-height: 1.375rem; width: 730px; height: var(--custom-channel-textarea-text-area-height); min-height: var(--custom-channel-textarea-text-area-height); color: var(--text-normal);&quot; class=&quot;textArea__74543 textAreaSlate_e0e383 slateContainer_b692b3&quot;&gt;&lt;div style=&quot;margin: 0px; padding: 0px; border: 0px; font-weight: inherit; font-style: inherit; font-family: inherit; vertical-align: baseline; outline: 0px;&quot;&gt;&lt;div style=&quot;margin: 0px; padding: 11px 10px 11px 0px; border: 0px; vertical-align: baseline; outline: 0px; position: absolute; left: 0px; right: 10px; text-overflow: ellipsis; overflow: hidden; color: var(--channel-text-area-placeholder); user-select: none; pointer-events: none; background-color: rgb(56, 58, 64);&quot; aria-hidden=&quot;true&quot; class=&quot;placeholder_e68c63 slateTextArea__0661c fontSize16Padding__48818&quot;&gt;&lt;div style=&quot;margin: 0px; padding: 0px; border: 0px; font-weight: inherit; font-style: inherit; font-family: inherit; vertical-align: baseline; outline: 0px; position: relative; display: flex; flex: 1 1 auto; min-height: 0px; min-width: 0px; z-index: 0;&quot; class=&quot;messagesWrapper_ea2b0b group-spacing-16&quot;&gt;&lt;div style=&quot;margin: 0px; padding: 0px; border: 0px; font-weight: inherit; font-style: inherit; font-family: inherit; vertical-align: baseline; outline: 0px; position: absolute; box-sizing: border-box; min-height: 0px; flex: 1 1 auto; overflow-anchor: none; overflow: hidden scroll; inset: 0px;&quot; role=&quot;group&quot; tabindex=&quot;-1&quot; data-jump-section=&quot;global&quot; dir=&quot;ltr&quot; class=&quot;scroller__1f96e customTheme_db4d28 auto_a48086 scrollerBase_dc3aa9 disableScrollAnchor_e73c0f managedReactiveScroller__79923&quot;&gt;&lt;div style=&quot;margin: 0px; padding: 0px; border: 0px; font-weight: inherit; font-style: inherit; font-family: inherit; vertical-align: baseline; outline: 0px; position: relative; overflow-anchor: none; display: flex; flex-direction: column; justify-content: flex-end; align-items: stretch; min-height: 100%;&quot; class=&quot;scrollerContent_c73942 content__23cab&quot;&gt;&lt;ol style=&quot;margin: 0px; padding: 0px; border: 0px; font-weight: inherit; font-style: inherit; font-family: inherit; vertical-align: baseline; list-style: none; min-height: 0px; overflow: hidden;&quot; tabindex=&quot;0&quot; data-list-id=&quot;chat-messages&quot; role=&quot;list&quot; aria-label=&quot;Messages in&quot; class=&quot;scrollerInner__059a5&quot;&gt;&lt;li style=&quot;margin: 0px; padding-top: 0px; padding-bottom: 0px; border: 0px; font-weight: inherit; font-style: inherit; font-family: inherit; vertical-align: baseline; outline: none; position: relative;&quot; aria-setsize=&quot;-1&quot; class=&quot;messageListItem__6a4fb&quot; id=&quot;chat-messages-1185230934967070810-1189196363695673394&quot;&gt;&lt;div style=&quot;margin: 1.0625rem 0px 0px; padding-top: var(--custom-message-spacing-vertical-container-cozy); padding-bottom: var(--custom-message-spacing-vertical-container-cozy); padding-left: var(--custom-message-margin-left-content-cozy); border: 0px; font-weight: inherit; font-style: inherit; font-family: inherit; vertical-align: baseline; outline: 0px; position: relative; overflow-wrap: break-word; user-select: text; flex: 0 0 auto; min-height: 2.75rem; background-color: var(--background-message-hover); padding-right: 48px !important;&quot; aria-labelledby=&quot;message-username-1189196363695673394 uid_1 message-content-1189196363695673394 uid_2 message-timestamp-1189196363695673394&quot; aria-roledescription=&quot;Message&quot; aria-setsize=&quot;-1&quot; tabindex=&quot;-1&quot; data-list-item-id=&quot;chat-messages___chat-messages-1185230934967070810-1189196363695673394&quot; role=&quot;article&quot; class=&quot;message__80c10 cozyMessage__64ce7 groupStart__56db5 wrapper__09ecc cozy_f5c119 zalgo__39311&quot;&gt;&lt;div style=&quot;margin: 0px; padding: 0px; border: 0px; font-weight: inherit; font-style: inherit; font-family: inherit; vertical-align: baseline; outline: 0px; position: static;&quot; class=&quot;contents_f41bb2&quot;&gt;&lt;div style=&quot;margin-top: 0px; margin-right: 0px; margin-bottom: 0px; margin-left: calc(-1*var(--custom-message-margin-left-content-cozy)); padding-top: 0px; padding-right: 0px; padding-bottom: 0px; padding-left: var(--custom-message-margin-left-content-cozy); border: 0px; font-weight: inherit; font-style: inherit; font-family: inherit; font-size: 1rem; vertical-align: baseline; outline: 0px; line-height: 1.375rem; overflow-wrap: break-word; user-select: text; color: var(--text-normal); position: relative; overflow: hidden;&quot; class=&quot;markup_a7e664 messageContent__21e69&quot; id=&quot;message-content-1189196363695673394&quot;&gt;&lt;span style=&quot;margin: 0px; padding: 0px; border: 0px; font-weight: inherit; font-style: inherit; font-family: inherit; vertical-align: baseline; outline: 0px;&quot;&gt;Générer des rapports sur les données d&lt;/span&gt;&lt;span style=&quot;margin: 0px; padding: 0px; border: 0px; font-weight: inherit; font-style: inherit; font-family: inherit; vertical-align: baseline; outline: 0px;&quot;&gt;'utilisation&lt;/span&gt;&lt;/div&gt;&lt;/div&gt;&lt;div style=&quot;margin: 0px; padding: 0px; border: 0px; font-weight: inherit; font-style: inherit; font-family: inherit; vertical-align: baseline; outline: 0px; position: absolute; top: 0px; right: 0px;&quot; class=&quot;buttonContainer_dd4b62&quot;&gt;&lt;div style=&quot;margin: 0px; padding: 0px 14px 0px 32px; border: 0px; font-weight: inherit; font-style: inherit; font-family: inherit; vertical-align: baseline; outline: 0px; opacity: 1; pointer-events: none; position: absolute; right: 0px; z-index: 1; top: -16px;&quot; aria-label=&quot;Message Actions&quot; role=&quot;group&quot; class=&quot;buttons__3766a container__9d616 isHeader__4c092&quot;&gt;&lt;div style=&quot;margin: 0px; padding: 0px; border: 0px; font-weight: inherit; font-style: inherit; font-family: inherit; vertical-align: baseline; outline: 0px; background-color: var(--background-primary); box-shadow: var(--elevation-stroke); display: grid; grid-auto-flow: column; box-sizing: border-box; height: 32px; border-radius: 4px; align-items: center; justify-content: flex-start; user-select: none; transition: box-shadow 0.1s ease-out 0s; position: relative; overflow: hidden; pointer-events: auto;&quot; class=&quot;buttonsInner_bca8fa wrapper_c727b6&quot;&gt;&lt;div style=&quot;margin: 0px; padding: 4px; border: 0px; font-weight: inherit; font-style: inherit; font-family: inherit; vertical-align: baseline; outline: 0px; display: flex; align-items: center; justify-content: center; height: 24px; min-width: 24px; flex: 0 0 auto; color: var(--interactive-normal); cursor: pointer; position: relative;&quot; tabindex=&quot;0&quot; role=&quot;button&quot; aria-expanded=&quot;false&quot; aria-label=&quot;Add Reaction&quot; class=&quot;button_d553e5&quot;&gt;&lt;svg viewBox=&quot;0 0 24 24&quot; fill=&quot;none&quot; height=&quot;18&quot; width=&quot;18&quot; xmlns=&quot;http://www.w3.org/2000/svg&quot; role=&quot;img&quot; aria-hidden=&quot;true&quot; class=&quot;icon_bdb038&quot;&gt;&lt;path class=&quot;&quot; clip-rule=&quot;evenodd&quot; d=&quot;M12 23a11 11 0 1 0 0-22 11 11 0 0 0 0 22ZM6.5 13a1.5 1.5 0 1 0 0-3 1.5 1.5 0 0 0 0 3Zm11 0a1.5 1.5 0 1 0 0-3 1.5 1.5 0 0 0 0 3Zm-9.8 1.17a1 1 0 0 1 1.39.27 3.5 3.5 0 0 0 5.82 0 1 1 0 0 1 1.66 1.12 5.5 5.5 0 0 1-9.14 0 1 1 0 0 1 .27-1.4Z&quot; fill-rule=&quot;evenodd&quot; fill=&quot;currentColor&quot;&gt;&lt;/path&gt;&lt;/svg&gt;&lt;/div&gt;&lt;div style=&quot;margin: 0px; padding: 4px; border: 0px; font-weight: inherit; font-style: inherit; font-family: inherit; vertical-align: baseline; outline: 0px; display: flex; align-items: center; justify-content: center; height: 24px; min-width: 24px; flex: 0 0 auto; color: var(--interactive-normal); cursor: pointer; position: relative;&quot; tabindex=&quot;0&quot; role=&quot;button&quot; aria-label=&quot;Reply&quot; class=&quot;button_d553e5&quot;&gt;&lt;svg viewBox=&quot;0 0 24 24&quot; fill=&quot;none&quot; height=&quot;24&quot; width=&quot;24&quot; xmlns=&quot;http://www.w3.org/2000/svg&quot; role=&quot;img&quot; aria-hidden=&quot;true&quot; class=&quot;icon_d1ac81&quot;&gt;&lt;path class=&quot;&quot; d=&quot;M2.3 7.3a1 1 0 0 0 0 1.4l5 5a1 1 0 0 0 1.4-1.4L5.42 9H11a7 7 0 0 1 7 7v4a1 1 0 1 0 2 0v-4a9 9 0 0 0-9-9H5.41l3.3-3.3a1 1 0 0 0-1.42-1.4l-5 5Z&quot; fill=&quot;currentColor&quot;&gt;&lt;/path&gt;&lt;/svg&gt;&lt;/div&gt;&lt;div style=&quot;margin: 0px; padding: 4px; border: 0px; font-weight: inherit; font-style: inherit; font-family: inherit; vertical-align: baseline; outline: 0px; display: flex; align-items: center; justify-content: center; height: 24px; min-width: 24px; flex: 0 0 auto; color: var(--interactive-normal); cursor: pointer; position: relative;&quot; tabindex=&quot;0&quot; role=&quot;button&quot; aria-expanded=&quot;false&quot; aria-label=&quot;More&quot; class=&quot;button_d553e5&quot;&gt;&lt;svg viewBox=&quot;0 0 24 24&quot; fill=&quot;none&quot; height=&quot;24&quot; width=&quot;24&quot; xmlns=&quot;http://www.w3.org/2000/svg&quot; role=&quot;img&quot; aria-hidden=&quot;true&quot; class=&quot;icon_d1ac81&quot;&gt;&lt;path class=&quot;&quot; clip-rule=&quot;evenodd&quot; d=&quot;M4 14a2 2 0 1 0 0-4 2 2 0 0 0 0 4Zm10-2a2 2 0 1 1-4 0 2 2 0 0 1 4 0Zm8 0a2 2 0 1 1-4 0 2 2 0 0 1 4 0Z&quot; fill-rule=&quot;evenodd&quot; fill=&quot;currentColor&quot;&gt;&lt;/path&gt;&lt;/svg&gt;&lt;/div&gt;&lt;/div&gt;&lt;/div&gt;&lt;/div&gt;&lt;/div&gt;&lt;/li&gt;&lt;div style=&quot;margin: 0px; padding: 0px; border: 0px; font-weight: inherit; font-style: inherit; font-family: inherit; vertical-align: baseline; outline: 0px; height: 30px; width: 1px; flex: 0 0 auto; pointer-events: none;&quot; class=&quot;scrollerSpacer__9cd32&quot;&gt;&lt;/div&gt;&lt;/ol&gt;&lt;/div&gt;&lt;/div&gt;&lt;/div&gt;&lt;div style=&quot;margin: 0px 0px 24px; padding: 0px; border: 0px; font-weight: inherit; font-style: inherit; font-family: inherit; vertical-align: baseline; outline: 0px; position: relative; width: 952px; border-radius: 8px; background-color: var(--background-primary);&quot; class=&quot;channelTextArea__2e60f channelTextArea__56a36&quot;&gt;&lt;div style=&quot;margin: 0px; padding: 0px; border: 0px; font-weight: inherit; font-style: inherit; font-family: inherit; vertical-align: baseline; outline: 0px; overflow: hidden scroll; max-height: 50vh; border-radius: 8px; backface-visibility: hidden; background: var(--bg-overlay-3,var(--channeltextarea-background));&quot; class=&quot;scrollableContainer__33e06 themedBackground__6b1b6 webkit__8d35a&quot;&gt;&lt;div style=&quot;margin: 0px; padding: 0px 0px 0px 16px; border: 0px; font-weight: inherit; font-style: inherit; font-family: inherit; vertical-align: baseline; outline: 0px; display: flex; position: relative;&quot; class=&quot;inner__9fd0b sansAttachButton__996a4&quot;&gt;&lt;div style=&quot;margin: 0px; padding: 0px; border: 0px; font-weight: inherit; font-style: inherit; font-family: inherit; vertical-align: baseline; outline: 0px; position: relative; width: 0px; height: 0px; pointer-events: none;&quot; class=&quot;uploadInput_a6be39&quot;&gt;&lt;div style=&quot;margin: 0px; padding: 0px; border: 0px; font-weight: inherit; font-style: inherit; font-family: inherit; font-size: 0px; vertical-align: baseline; outline: 0px; position: absolute; top: 0px; left: 0px; width: 0px; height: 0px; opacity: 0; cursor: pointer;&quot; aria-hidden=&quot;true&quot; aria-disabled=&quot;false&quot; tabindex=&quot;-1&quot; class=&quot;file-input&quot; role=&quot;button&quot;&gt;&lt;/div&gt;&lt;/div&gt;&lt;div style=&quot;margin: 0px; padding: 0px; border: 0px; font-weight: inherit; font-style: inherit; font-family: inherit; vertical-align: baseline; outline: 0px; position: sticky; flex: 0 0 auto; align-self: stretch;&quot; class=&quot;attachWrapper__6354f&quot;&gt;&lt;button style=&quot;font-family: var(--font-primary); font-weight: 500; border: 0px; cursor: pointer; text-rendering: optimizelegibility; outline: 0px; position: sticky; display: flex; justify-content: center; align-items: center; background-image: initial; border-radius: 3px; font-size: 14px; line-height: 16px; padding: 10px 16px; user-select: none; color: currentcolor; margin: 0px 0px 0px -16px; width: auto; height: 44px; top: 0px;&quot; class=&quot;attachButton_b1db83 attachButton_eba568 button_afdfd9 lookBlank__7ca0a colorBrand_b2253e grow__4c8a4&quot; type=&quot;button&quot; aria-label=&quot;Upload a file or send invites&quot; aria-expanded=&quot;false&quot;&gt;&lt;div style=&quot;margin: 0px; padding: 0px; border: 0px; font-weight: inherit; font-style: inherit; font-family: inherit; vertical-align: baseline; outline: 0px; height: 24px; --button--underline-color: transparent; background-image: linear-gradient(to top,transparent,transparent var(--custom-button-link-underline-offset),var(--button--underline-color)var(--custom-button-link-underline-offset),var(--button--underline-color)var(--custom-button-link-underline-stop),transparent var(--custom-button-link-underline-stop));&quot; class=&quot;contents_fb6220 attachButtonInner__3ce2b&quot;&gt;&lt;svg viewBox=&quot;0 0 24 24&quot; fill=&quot;none&quot; height=&quot;24&quot; width=&quot;24&quot; xmlns=&quot;http://www.w3.org/2000/svg&quot; role=&quot;img&quot; aria-hidden=&quot;true&quot;&gt;&lt;circle class=&quot;&quot; fill=&quot;transparent&quot; r=&quot;10&quot; cy=&quot;12&quot; cx=&quot;12&quot;&gt;&lt;/circle&gt;&lt;path class=&quot;attachButtonPlus_bf89ca&quot; clip-rule=&quot;evenodd&quot; d=&quot;M12 23a11 11 0 1 0 0-22 11 11 0 0 0 0 22Zm0-17a1 1 0 0 1 1 1v4h4a1 1 0 1 1 0 2h-4v4a1 1 0 1 1-2 0v-4H7a1 1 0 1 1 0-2h4V7a1 1 0 0 1 1-1Z&quot; fill-rule=&quot;evenodd&quot; fill=&quot;var(--interactive-normal)&quot;&gt;&lt;/path&gt;&lt;/svg&gt;&lt;/div&gt;&lt;/button&gt;&lt;/div&gt;&lt;div style=&quot;margin: 0px; padding: 0px; border: none; font-style: inherit; font-family: inherit; font-size: 1rem; vertical-align: baseline; outline: 0px; position: relative; background-color: transparent; resize: none; appearance: none; box-sizing: border-box; line-height: 1.375rem; width: 730px; height: var(--custom-channel-textarea-text-area-height); min-height: var(--custom-channel-textarea-text-area-height); color: var(--text-normal);&quot; class=&quot;textArea__74543 textAreaSlate_e0e383 slateContainer_b692b3&quot;&gt;&lt;div style=&quot;margin: 0px; padding: 0px; border: 0px; font-weight: inherit; font-style: inherit; font-family: inherit; vertical-align: baseline; outline: 0px;&quot;&gt;&lt;div style=&quot;margin: 0px; padding: 11px 10px 11px 0px; border: 0px; vertical-align: baseline; outline: 0px; position: absolute; left: 0px; right: 10px; text-overflow: ellipsis; overflow: hidden; color: var(--channel-text-area-placeholder); user-select: none; pointer-events: none;&quot; aria-hidden=&quot;true&quot; class=&quot;placeholder_e68c63 slateTextArea__0661c fontSize16Padding__48818&quot;&gt;Message 𝐳𝐚𝐤𝐚𝐫𝐢𝐚, yassir rachad, OUMAIMA, Haki Mohamed&lt;/div&gt;&lt;div style=&quot;margin: 0px; padding: 11px 10px 11px 0px; border: 0px; vertical-align: baseline; outline: none; line-height: 1.375rem; overflow-wrap: break-word; user-select: text; caret-color: var(--text-normal); word-break: break-word; position: relative; left: 0px; right: 10px;&quot; data-slate-node=&quot;value&quot; data-slate-editor=&quot;true&quot; aria-label=&quot;Message 𝐳𝐚𝐤𝐚𝐫𝐢𝐚, yassir rachad, OUMAIMA, Haki Mohamed&quot; data-can-focus=&quot;true&quot; class=&quot;markup_a7e664 editor__66464 slateTextArea__0661c fontSize16Padding__48818&quot; aria-autocomplete=&quot;list&quot; aria-invalid=&quot;false&quot; aria-haspopup=&quot;listbox&quot; spellcheck=&quot;true&quot; aria-multiline=&quot;true&quot; role=&quot;textbox&quot;&gt;&lt;/div&gt;&lt;/div&gt;&lt;/div&gt;&lt;/div&gt;&lt;/div&gt;&lt;/div&gt;&lt;/div&gt;&lt;/div&gt;&lt;/div&gt;&lt;/div&gt;&lt;/div&gt;&lt;/div&gt;&lt;/span&gt;" style="ellipse;whiteSpace=wrap;html=1;" vertex="1" parent="1">
                    <mxGeometry x="340" y="1265" width="220" height="80" as="geometry"/>
                </mxCell>
                <mxCell id="35" value="Text" style="text;strokeColor=none;align=center;fillColor=none;html=1;verticalAlign=middle;whiteSpace=wrap;rounded=0;labelBackgroundColor=#000000;fontSize=16;fontColor=#2a252f;" vertex="1" parent="1">
                    <mxGeometry x="400" y="1240" width="60" height="30" as="geometry"/>
                </mxCell>
                <mxCell id="60" style="edgeStyle=none;html=1;entryX=0.673;entryY=1.038;entryDx=0;entryDy=0;entryPerimeter=0;dashed=1;strokeWidth=2;fontSize=25;fontColor=#FFFFFF;exitX=1;exitY=0.5;exitDx=0;exitDy=0;" edge="1" parent="1" source="36" target="42">
                    <mxGeometry relative="1" as="geometry">
                        <Array as="points">
                            <mxPoint x="840" y="1130"/>
                        </Array>
                    </mxGeometry>
                </mxCell>
                <mxCell id="36" value="Genere des rapports sur les donnees&amp;nbsp; d'utilisation&amp;nbsp;" style="text;strokeColor=none;align=center;fillColor=none;html=1;verticalAlign=middle;whiteSpace=wrap;rounded=0;labelBackgroundColor=none;fontSize=16;fontColor=#FFFFFF;" vertex="1" parent="1">
                    <mxGeometry x="340" y="1290" width="220" height="40" as="geometry"/>
                </mxCell>
                <mxCell id="38" value="" style="endArrow=none;html=1;strokeWidth=2;fontSize=16;fontColor=#FFFFFF;exitX=0;exitY=0.5;exitDx=0;exitDy=0;" edge="1" parent="1" source="28">
                    <mxGeometry width="50" height="50" relative="1" as="geometry">
                        <mxPoint x="410" y="1230" as="sourcePoint"/>
                        <mxPoint x="110" y="1160" as="targetPoint"/>
                    </mxGeometry>
                </mxCell>
                <mxCell id="39" value="" style="endArrow=none;html=1;strokeWidth=2;fontSize=16;fontColor=#FFFFFF;exitX=0;exitY=0.5;exitDx=0;exitDy=0;" edge="1" parent="1" source="29">
                    <mxGeometry width="50" height="50" relative="1" as="geometry">
                        <mxPoint x="410" y="1230" as="sourcePoint"/>
                        <mxPoint x="110" y="1160" as="targetPoint"/>
                    </mxGeometry>
                </mxCell>
                <mxCell id="40" value="" style="endArrow=none;html=1;strokeWidth=2;fontSize=16;fontColor=#FFFFFF;exitX=0;exitY=0.5;exitDx=0;exitDy=0;" edge="1" parent="1" source="30">
                    <mxGeometry width="50" height="50" relative="1" as="geometry">
                        <mxPoint x="410" y="1230" as="sourcePoint"/>
                        <mxPoint x="110" y="1160" as="targetPoint"/>
                    </mxGeometry>
                </mxCell>
                <mxCell id="41" value="" style="endArrow=none;html=1;strokeWidth=2;fontSize=16;fontColor=#FFFFFF;exitX=0;exitY=0.5;exitDx=0;exitDy=0;" edge="1" parent="1" source="36">
                    <mxGeometry width="50" height="50" relative="1" as="geometry">
                        <mxPoint x="410" y="1230" as="sourcePoint"/>
                        <mxPoint x="110" y="1160" as="targetPoint"/>
                    </mxGeometry>
                </mxCell>
                <mxCell id="42" value="" style="ellipse;whiteSpace=wrap;html=1;labelBackgroundColor=none;strokeColor=#fafafa;fontSize=16;fontColor=#FFFFFF;" vertex="1" parent="1">
                    <mxGeometry x="840" y="710" width="190" height="80" as="geometry"/>
                </mxCell>
                <mxCell id="43" value="Login" style="text;strokeColor=none;align=center;fillColor=none;html=1;verticalAlign=middle;whiteSpace=wrap;rounded=0;labelBackgroundColor=none;fontSize=25;fontColor=#FFFFFF;" vertex="1" parent="1">
                    <mxGeometry x="905" y="735" width="60" height="30" as="geometry"/>
                </mxCell>
            </root>
        </mxGraphModel>
    </diagram>
</mxfile>